# File created by Blade
# Date/Time:  Wed Jan 21 17:16:13 2015
#---------------------------------------------------------
:version 1.10
:name HOM
:units
  mass 1.0
  length 1.000000
  angle deg
:documentation
     Acclaim Skeleton File
:root
   axis xyz
   order TX TY TZ RX RY RZ
   position 0.000000 0.000000 0.000000
   orientation 0 0 0
:bonedata
   begin
      id 1
      name Spine_dum
      direction 0.000000 1.000000 0.000000
      length 7.067664
      axis 0.0 0.0 0.0 xyz
   end
   begin
      id 2
      name LeftUpLeg_dum
      direction 1.000000 0.000000 0.000000
      length 4.013002
      axis 0.0 0.0 0.0 xyz
   end
   begin
      id 3
      name RightUpLeg_dum
      direction -1.000000 0.000000 0.000000
      length 4.013002
      axis 0.0 0.0 0.0 xyz
   end
   begin
      id 4
      name Spine
      direction 0.000000 1.000000 0.000000
      length 0.000000
      axis 0.0 0.0 0.0 xyz
      dof rx ry rz
   end
   begin
      id 5
      name Spine_dum1
      direction 0.000000 1.000000 0.000000
      length 15.039886
      axis 0.0 0.0 0.0 xyz
   end
   begin
      id 6
      name Spine_dum2
      direction 0.000000 1.000000 0.000000
      length 10.530368
      axis 0.0 0.0 0.0 xyz
   end
   begin
      id 7
      name Spine_dum3
      direction 0.000000 1.000000 0.000000
      length 10.530368
      axis 0.0 0.0 0.0 xyz
   end
   begin
      id 8
      name Head
      direction 0.000000 1.000000 0.000000
      length 4.527550
      axis 0.0 0.0 0.0 xyz
      dof rx ry rz
   end
   begin
      id 9
      name LeftShoulder
      direction 1.000000 0.000000 0.000000
      length 7.028855
      axis 0.0 0.0 -90.0 xyz
      dof rx ry rz
   end
   begin
      id 10
      name LeftArm
      direction 1.000000 0.000000 0.000000
      length 10.797705
      axis 0.0 0.0 -90.0 xyz
      dof rx ry rz
   end
   begin
      id 11
      name LeftForeArm
      direction 1.000000 0.000000 0.000000
      length 7.907442
      axis 0.0 0.0 -90.0 xyz
      dof ry rz rx
   end
   begin
      id 12
      name LeftHand
      direction 0.000000 0.000000 0.000000
      length 0.000000
      axis 0.0 0.0 -90.0 xyz
      dof rx ry rz
   end
   begin
      id 13
      name LeftHand_dum1
      direction 0.000000 0.000000 0.000000
      length 0.000000
      axis 0.0 0.0 -90.0 xyz
   end
   begin
      id 14
      name LeftHand_dum2
      direction 1.000000 0.000000 0.000000
      length 3.937000
      axis 0.0 0.0 -90.0 xyz
   end
   begin
      id 15
      name LeftHandThumb1
      direction 0.000000 0.000000 1.000000
      length 3.937000
      axis 0.0 0.0 -90.0 xyz
      dof rx rz ry
   end
   begin
      id 16
      name RightShoulder
      direction -1.000000 0.000000 0.000000
      length 7.028855
      axis 0.0 0.0 90.0 xyz
      dof rx ry rz
   end
   begin
      id 17
      name RightArm
      direction -1.000000 0.000000 0.000000
      length 10.797705
      axis 0.0 0.0 90.0 xyz
      dof rx ry rz
   end
   begin
      id 18
      name RightForeArm
      direction -1.000000 0.000000 0.000000
      length 7.907442
      axis 0.0 0.0 90.0 xyz
      dof ry rz rx
   end
   begin
      id 19
      name RightHand
      direction 0.000000 0.000000 0.000000
      length 0.000000
      axis 0.0 0.0 90.0 xyz
      dof rx ry rz
   end
   begin
      id 20
      name RightHand_dum1
      direction 0.000000 0.000000 0.000000
      length 0.000000
      axis 0.0 0.0 90.0 xyz
   end
   begin
      id 21
      name RightHand_dum2
      direction -1.000000 0.000000 0.000000
      length 3.937000
      axis 0.0 0.0 90.0 xyz
   end
   begin
      id 22
      name RightHandThumb1
      direction 0.000000 0.000000 1.000000
      length 3.937000
      axis 0.0 0.0 90.0 xyz
      dof rx rz ry
   end
   begin
      id 23
      name LeftUpLeg
      direction 0.000000 -1.000000 0.000000
      length 16.899758
      axis 0.0 0.0 0.0 xyz
      dof rx ry rz
   end
   begin
      id 24
      name LeftLeg
      direction 0.000000 -1.000000 0.000000
      length 17.389183
      axis 0.0 0.0 0.0 xyz
      dof rx ry rz
   end
   begin
      id 25
      name LeftFoot
      direction 0.000000 -0.258819 0.965926
      length 4.924528
      axis 15.0 0.0 0.0 xyz
      dof rx ry rz
   end
   begin
      id 26
      name LeftToeBase
      direction 0.000000 0.000000 1.000000
      length 2.952750
      axis 0.0 0.0 0.0 xyz
      dof rx ry rz
   end
   begin
      id 27
      name RightUpLeg
      direction 0.000000 -1.000000 0.000000
      length 16.899758
      axis 0.0 0.0 0.0 xyz
      dof rx ry rz
   end
   begin
      id 28
      name RightLeg
      direction 0.000000 -1.000000 0.000000
      length 17.389183
      axis 0.0 0.0 0.0 xyz
      dof rx ry rz
   end
   begin
      id 29
      name RightFoot
      direction 0.000000 -0.258819 0.965926
      length 4.924528
      axis 15.0 0.0 0.0 xyz
      dof rx ry rz
   end
   begin
      id 30
      name RightToeBase
      direction 0.000000 0.000000 1.000000
      length 2.952750
      axis 0.0 0.0 0.0 xyz
      dof rx ry rz
   end
:hierarchy
   begin
      root Spine_dum LeftUpLeg_dum RightUpLeg_dum
      Spine_dum Spine
      LeftUpLeg_dum LeftUpLeg
      RightUpLeg_dum RightUpLeg
      Spine Spine_dum1 Spine_dum2 Spine_dum3
      Spine_dum1 Head
      Spine_dum2 LeftShoulder
      Spine_dum3 RightShoulder
      LeftShoulder LeftArm
      LeftArm LeftForeArm
      LeftForeArm LeftHand
      LeftHand LeftHand_dum1 LeftHand_dum2
      LeftHand_dum1 LeftHandThumb1
      RightShoulder RightArm
      RightArm RightForeArm
      RightForeArm RightHand
      RightHand RightHand_dum1 RightHand_dum2
      RightHand_dum1 RightHandThumb1
      LeftUpLeg LeftLeg
      LeftLeg LeftFoot
      LeftFoot LeftToeBase
      RightUpLeg RightLeg
      RightLeg RightFoot
      RightFoot RightToeBase
   end

# File created by Blade
# Date/Time:  Wed Jan 21 17:16:23 2015
# Frame Rate: 120.000 fps
#------------------------------------------------------
:FULLY-SPECIFIED
:DEGREES
240
root 19.450683 34.975930 -16.278069 -164.060706 -5.427089 -180.095647
Spine 52.370123 5.311042 -1.180706
Head -4.058142 -5.397789 6.761417
LeftShoulder 10.052206 -32.453617 -0.079195
LeftArm 6.335127 27.532803 -73.168429
LeftForeArm -4.245708 -0.000000 12.728797
LeftHand 0.634052 -0.000000 6.304062
LeftHandThumb1 -26.253704 0.000000 33.147579
RightShoulder 7.609487 -2.381729 1.357737
RightArm 35.643814 -14.160256 55.939801
RightForeArm -18.975537 -0.000000 22.223537
RightHand 1.882571 -0.000000 -4.794557
RightHandThumb1 -24.326973 -0.000000 -32.862282
LeftUpLeg -38.973146 1.514938 -4.892617
LeftLeg 32.138888 -0.000000 -0.000000
LeftFoot -27.730760 24.666937 -14.039632
LeftToeBase 17.902235 -0.000000 -0.000000
RightUpLeg -33.579324 -2.704903 8.607120
RightLeg 19.843977 -0.000000 -0.000000
RightFoot -19.029307 -23.484271 11.840227
RightToeBase 23.142748 -0.000000 -0.000000
241
root 19.488189 34.916470 -16.183776 -163.282946 -5.339891 -180.062894
Spine 52.867110 5.417734 -1.272078
Head -4.919103 -5.227285 7.031127
LeftShoulder 10.412805 -32.827497 0.008594
LeftArm 6.837357 27.493152 -72.742370
LeftForeArm -3.971141 -0.000000 12.894884
LeftHand 0.571648 -0.000000 6.115036
LeftHandThumb1 -26.253704 0.000000 33.147579
RightShoulder 7.958347 -2.104307 1.289694
RightArm 36.297877 -13.934731 55.308399
RightForeArm -18.774001 0.000000 22.395116
RightHand 1.548340 -0.000000 -5.018012
RightHandThumb1 -24.326973 -0.000000 -32.862282
LeftUpLeg -40.179588 1.545008 -4.992208
LeftLeg 32.202137 -0.000000 -0.000000
LeftFoot -27.285403 24.346860 -13.865153
LeftToeBase 17.776646 -0.000000 -0.000000
RightUpLeg -34.973878 -2.652528 8.781191
RightLeg 20.735767 -0.000000 -0.000000
RightFoot -19.265327 -23.156324 11.984287
RightToeBase 23.144655 -0.000000 -0.000000
242
root 19.525056 34.853482 -16.094034 -162.538193 -5.232939 -179.998113
Spine 53.398238 5.552559 -1.292006
Head -5.821875 -5.093847 7.254193
LeftShoulder 10.801951 -33.202302 0.019423
LeftArm 7.336753 27.490377 -72.259295
LeftForeArm -3.901842 -0.000000 13.129105
LeftHand 0.517261 -0.000000 6.074033
LeftHandThumb1 -26.253704 0.000000 33.147579
RightShoulder 8.265156 -1.702322 1.199182
RightArm 36.775253 -13.548621 54.955551
RightForeArm -18.881000 0.000000 22.551415
RightHand 1.327167 -0.000000 -5.115968
RightHandThumb1 -24.326973 -0.000000 -32.862282
LeftUpLeg -41.350861 1.688340 -5.084472
LeftLeg 32.280424 -0.000000 -0.000000
LeftFoot -26.884643 24.228679 -13.661751
LeftToeBase 17.966841 -0.000000 -0.000000
RightUpLeg -36.302040 -2.446663 8.928750
RightLeg 21.582691 -0.000000 -0.000000
RightFoot -19.535847 -22.989673 12.158748
RightToeBase 23.161871 -0.000000 -0.000000
243
root 19.543453 34.791625 -15.998092 -161.799223 -5.273587 -179.985516
Spine 54.014997 5.337821 -1.371582
Head -6.868795 -4.801606 7.225828
LeftShoulder 10.942616 -33.704408 0.047365
LeftArm 7.820713 27.467832 -71.804780
LeftForeArm -3.703523 -0.000000 13.292668
LeftHand 0.557829 -0.000000 5.776825
LeftHandThumb1 -26.253704 0.000000 33.147579
RightShoulder 8.799761 -0.065051 0.968533
RightArm 36.031304 -13.642509 55.228807
RightForeArm -19.108082 0.000000 22.957354
RightHand 1.120562 -0.000000 -5.127547
RightHandThumb1 -24.326973 -0.000000 -32.862282
LeftUpLeg -42.484202 1.590041 -5.169668
LeftLeg 32.293969 -0.000000 -0.000000
LeftFoot -26.263482 24.443984 -13.562311
LeftToeBase 17.610328 -0.000000 -0.000000
RightUpLeg -37.666269 -2.546327 9.106418
RightLeg 22.476408 -0.000000 -0.000000
RightFoot -19.825082 -22.683780 12.316184
RightToeBase 23.362878 -0.000000 -0.000000
244
root 19.562264 34.712831 -15.911022 -161.046498 -5.247022 -179.955947
Spine 54.528069 5.260455 -1.374004
Head -7.781776 -4.641673 7.169693
LeftShoulder 11.217843 -34.089421 -0.042979
LeftArm 8.337824 27.517489 -71.247278
LeftForeArm -3.749818 -0.000000 13.466011
LeftHand 0.509399 -0.000000 5.725879
LeftHandThumb1 -26.253704 0.000000 33.147579
RightShoulder 9.217867 1.601912 0.776519
RightArm 35.161986 -13.669778 55.683800
RightForeArm -19.526615 -0.000000 23.311287
RightHand 0.902994 -0.000000 -5.185167
RightHandThumb1 -24.326973 -0.000000 -32.862282
LeftUpLeg -43.727601 1.616461 -5.282227
LeftLeg 32.522905 -0.000000 -0.000000
LeftFoot -25.927492 24.839197 -13.699185
LeftToeBase 17.588894 -0.000000 -0.000000
RightUpLeg -39.053482 -2.512133 9.253200
RightLeg 23.436259 -0.000000 -0.000000
RightFoot -20.207079 -22.423903 12.339528
RightToeBase 23.469813 -0.000000 -0.000000
245
root 19.593364 34.626536 -15.831066 -160.328956 -5.086540 -179.878951
Spine 55.024173 5.456153 -1.420860
Head -8.620561 -4.500260 7.395365
LeftShoulder 11.594413 -34.458436 -0.043190
LeftArm 8.847759 27.521103 -70.733936
LeftForeArm -3.799488 -0.000000 13.551335
LeftHand 0.544018 -0.000000 5.495107
LeftHandThumb1 -26.253704 0.000000 33.147579
RightShoulder 9.538787 2.039004 0.654135
RightArm 35.385690 -13.052795 55.694484
RightForeArm -19.785949 0.000000 23.569472
RightHand 0.879003 -0.000000 -5.350821
RightHandThumb1 -24.326973 -0.000000 -32.862282
LeftUpLeg -44.891307 1.720428 -5.290028
LeftLeg 32.769363 -0.000000 -0.000000
LeftFoot -25.440874 25.418585 -13.505372
LeftToeBase 17.673144 -0.000000 -0.000000
RightUpLeg -40.482080 -2.154563 9.334905
RightLeg 24.578503 -0.000000 -0.000000
RightFoot -20.716535 -22.294742 12.741738
RightToeBase 23.621773 -0.000000 -0.000000
246
root 19.614522 34.529998 -15.741104 -159.539810 -4.995383 -179.765428
Spine 55.399587 5.513676 -1.405437
Head -9.424934 -4.327631 7.498312
LeftShoulder 11.922969 -34.817665 -0.081256
LeftArm 9.340575 27.501649 -70.245124
LeftForeArm -3.736648 0.000000 13.612100
LeftHand 0.550322 0.000000 5.189495
LeftHandThumb1 -26.253704 0.000000 33.147579
RightShoulder 9.891855 2.545402 0.500369
RightArm 35.467874 -12.938522 55.269506
RightForeArm -19.292191 -0.000000 24.102448
RightHand 0.865829 -0.000000 -5.792454
RightHandThumb1 -24.326973 -0.000000 -32.862282
LeftUpLeg -46.176264 1.734031 -5.249543
LeftLeg 33.088020 -0.000000 -0.000000
LeftFoot -24.960639 26.180904 -13.354714
LeftToeBase 17.508255 -0.000000 -0.000000
RightUpLeg -41.961065 -1.861785 9.460244
RightLeg 25.647006 -0.000000 -0.000000
RightFoot -21.236850 -22.174695 12.958847
RightToeBase 23.874912 -0.000000 -0.000000
247
root 19.614636 34.423048 -15.655454 -158.831040 -4.855127 -179.745391
Spine 55.842779 5.648181 -1.402031
Head -10.166969 -4.281828 7.643299
LeftShoulder 12.436467 -35.195035 -0.154998
LeftArm 9.760112 27.436403 -69.838944
LeftForeArm -3.858148 0.000000 13.632438
LeftHand 0.538966 0.000000 5.289618
LeftHandThumb1 -26.253704 0.000000 33.147579
RightShoulder 10.093495 2.451042 0.258108
RightArm 36.147668 -12.325574 54.863785
RightForeArm -19.120687 -0.000000 24.412879
RightHand 0.697872 -0.000000 -6.085000
RightHandThumb1 -24.326973 -0.000000 -32.862282
LeftUpLeg -47.372491 1.614642 -5.245719
LeftLeg 33.499394 -0.000000 -0.000000
LeftFoot -24.522199 26.972262 -13.321994
LeftToeBase 17.332353 -0.000000 -0.000000
RightUpLeg -43.486570 -1.636487 9.509356
RightLeg 26.962822 -0.000000 -0.000000
RightFoot -21.899786 -22.054744 13.380028
RightToeBase 23.987941 -0.000000 -0.000000
248
root 19.676855 34.242915 -15.476301 -157.176439 -5.767968 -178.747896
Spine 54.733185 4.484639 -0.205333
Head -10.290119 -4.005547 6.915818
LeftShoulder 12.193277 -35.208829 -0.361625
LeftArm 10.158697 27.506750 -69.624147
LeftForeArm -3.752999 0.000000 13.573394
LeftHand 0.616204 0.000000 5.044597
LeftHandThumb1 -26.253704 0.000000 33.147579
RightShoulder 10.526707 2.610551 -0.461593
RightArm 36.194150 -12.199434 54.779282
RightForeArm -19.232294 -0.000000 24.767813
RightHand 0.563267 -0.000000 -6.041725
RightHandThumb1 -24.326973 -0.000000 -32.862282
LeftUpLeg -50.378601 0.929422 -3.938283
LeftLeg 34.931883 -0.000000 -0.000000
LeftFoot -24.269377 27.672061 -12.900093
LeftToeBase 17.424556 -0.000000 -0.000000
RightUpLeg -46.304985 -1.717170 10.914980
RightLeg 28.533911 -0.000000 -0.000000
RightFoot -22.500169 -21.809904 14.078279
RightToeBase 23.884876 -0.000000 -0.000000
249
root 19.668547 34.288131 -15.705848 -159.644445 -4.179355 -179.504675
Spine 59.718306 6.500130 -1.413439
Head -12.660636 -3.811657 8.185182
LeftShoulder 13.738962 -36.931911 -0.209740
LeftArm 10.323148 26.810203 -68.887052
LeftForeArm -3.681062 -0.000000 13.492432
LeftHand 0.677400 -0.000000 4.822119
LeftHandThumb1 -26.253704 0.000000 33.147579
RightShoulder 11.144008 4.581506 0.070759
RightArm 35.901254 -11.419556 54.823279
RightForeArm -19.269865 -0.000000 25.007517
RightHand 0.479477 -0.000000 -6.359541
RightHandThumb1 -24.326973 -0.000000 -32.862282
LeftUpLeg -46.689182 2.623359 -5.254360
LeftLeg 33.504787 -0.000000 -0.000000
LeftFoot -23.710473 28.087045 -12.215127
LeftToeBase 17.600848 -0.000000 -0.000000
RightUpLeg -43.653480 -1.405613 9.803099
RightLeg 28.997675 -0.000000 -0.000000
RightFoot -22.951352 -21.229354 14.364937
RightToeBase 24.093784 -0.000000 -0.000000
250
root 19.675792 34.068507 -15.469962 -157.120925 -4.265071 -179.487235
Spine 57.487598 6.292728 -1.603413
Head -12.430265 -3.774521 8.168366
LeftShoulder 13.751236 -36.569284 -0.198768
LeftArm 10.850747 27.039312 -68.493195
LeftForeArm -3.760056 -0.000000 13.434175
LeftHand 0.659629 -0.000000 4.880820
LeftHandThumb1 -26.253704 0.000000 33.147579
RightShoulder 11.129461 4.103242 0.036443
RightArm 36.396007 -11.479050 54.201877
RightForeArm -19.032315 -0.000000 25.297274
RightHand 0.313363 0.000000 -6.761902
RightHandThumb1 -24.326973 -0.000000 -32.862282
LeftUpLeg -50.376334 1.844801 -5.079871
LeftLeg 34.866062 -0.000000 -0.000000
LeftFoot -23.837861 28.688628 -12.613315
LeftToeBase 17.569927 -0.000000 -0.000000
RightUpLeg -47.730834 -0.825781 9.820651
RightLeg 31.261913 -0.000000 -0.000000
RightFoot -23.738530 -21.254333 14.595051
RightToeBase 23.966412 -0.000000 -0.000000
251
root 19.693138 33.930917 -15.397727 -156.406340 -4.060077 -179.372168
Spine 57.750040 6.490423 -1.682086
Head -12.995518 -3.546416 8.235522
LeftShoulder 14.177810 -36.922383 -0.249779
LeftArm 11.199245 26.891330 -67.997862
LeftForeArm -3.814226 0.000000 13.352014
LeftHand 0.634448 0.000000 4.746503
LeftHandThumb1 -26.253704 0.000000 33.147579
RightShoulder 11.443663 4.325995 -0.021894
RightArm 36.750973 -11.036261 53.967712
RightForeArm -19.253003 0.000000 25.482948
RightHand 0.087090 -0.000000 -7.092853
RightHandThumb1 -24.326973 -0.000000 -32.862282
LeftUpLeg -51.627555 2.007708 -5.065012
LeftLeg 35.538587 -0.000000 -0.000000
LeftFoot -24.248883 28.843637 -12.794899
LeftToeBase 18.164949 -0.000000 -0.000000
RightUpLeg -49.255026 -0.246200 9.783925
RightLeg 32.588927 -0.000000 -0.000000
RightFoot -24.384687 -21.414771 14.898298
RightToeBase 24.011740 -0.000000 -0.000000
